<?xml version="1.0" standalone="no"?>
<!DOCTYPE svg PUBLIC "-//W3C//DTD SVG 20010904//EN"
 "http://www.w3.org/TR/2001/REC-SVG-20010904/DTD/svg10.dtd">
<svg version="1.0" xmlns="http://www.w3.org/2000/svg"
 width="1228.000000pt" height="1228.000000pt" viewBox="0 0 1228.000000 1228.000000"
 preserveAspectRatio="xMidYMid meet">

<g transform="translate(0.000000,1228.000000) scale(0.100000,-0.100000)"
fill="#000000" stroke="none">
<path d="M3595 10823 c-335 -43 -621 -166 -875 -378 -237 -197 -485 -552 -550
-786 -22 -82 -27 -208 -8 -227 7 -7 34 -12 60 -12 53 0 44 -8 148 122 119 149
249 242 385 274 94 22 281 21 410 -1 96 -17 222 -54 369 -110 50 -19 117 -32
235 -45 123 -14 167 -23 173 -35 8 -13 51 -15 329 -15 264 0 321 2 325 14 3 8
28 17 62 21 79 9 254 54 272 69 16 14 221 86 243 86 7 0 21 -6 31 -13 16 -12
15 -16 -13 -57 -17 -25 -40 -47 -53 -50 -24 -6 -90 -82 -161 -185 -191 -276
-351 -663 -417 -1010 -43 -225 -52 -348 -59 -765 l-6 -405 -90 -34 -90 -34
-240 -2 c-257 -2 -296 -7 -400 -55 -33 -15 -79 -35 -102 -45 -24 -10 -43 -22
-43 -26 0 -4 -16 -15 -35 -24 -84 -41 -288 -245 -321 -324 -16 -38 -18 -109
-4 -131 7 -12 48 -16 217 -21 115 -4 247 -10 293 -14 106 -9 338 -57 450 -93
77 -24 85 -30 88 -54 3 -28 10 -31 72 -43 61 -11 68 -15 74 -39 3 -13 18 -32
33 -42 50 -32 145 -128 164 -165 38 -76 59 -178 59 -294 0 -68 -5 -120 -13
-135 -21 -42 -97 -60 -296 -70 -199 -11 -266 -20 -401 -56 -174 -47 -310 -129
-324 -194 -13 -65 35 -99 190 -134 216 -48 457 -140 588 -224 69 -44 126 -93
126 -108 0 -7 31 -43 69 -79 78 -75 125 -157 142 -250 14 -76 6 -263 -16 -370
-57 -274 -218 -578 -478 -903 -115 -145 -489 -529 -589 -606 -112 -86 -418
-338 -479 -394 -59 -55 -76 -94 -63 -146 16 -64 162 -57 282 13 149 87 621
306 779 361 28 10 62 25 75 34 13 9 89 38 169 66 79 28 156 59 170 69 33 25
118 53 136 47 8 -3 80 13 161 35 81 22 191 49 245 60 53 11 108 24 122 29 43
16 346 69 495 85 312 35 750 30 990 -10 47 -8 152 -24 234 -35 205 -29 495
-104 711 -185 181 -68 573 -258 703 -341 143 -92 235 -155 340 -232 127 -94
180 -121 234 -122 34 0 45 9 134 100 53 55 99 98 102 95 3 -3 42 30 86 73 45
42 124 115 176 161 156 137 443 432 479 491 32 53 58 78 164 157 26 20 57 52
69 72 12 20 32 49 45 64 28 34 32 107 8 127 -9 7 -38 15 -65 18 -54 5 -66 -1
-219 -99 -80 -51 -88 -54 -150 -54 -65 0 -69 2 -191 76 -224 137 -415 239
-662 354 -381 178 -872 308 -1298 345 -258 22 -731 6 -756 -25 -10 -14 -208
-40 -224 -30 -8 5 -354 -60 -370 -70 -5 -3 -10 -12 -10 -20 0 -14 -96 -42
-107 -31 -9 9 29 76 50 87 9 5 17 16 17 23 0 7 44 60 98 117 126 135 192 213
192 228 0 15 159 211 171 211 21 0 149 165 149 193 0 22 30 57 50 57 21 0 100
107 100 134 0 8 15 30 34 49 42 42 126 167 126 187 0 21 86 168 120 205 31 33
130 226 186 362 20 48 40 93 44 98 13 15 94 290 134 451 78 310 85 403 79
1014 -4 519 -30 956 -73 1235 -61 398 -77 972 -35 1265 20 140 71 297 132 406
37 67 57 90 107 127 95 69 155 110 223 151 35 20 62 42 60 48 -3 16 111 58
158 58 22 0 101 9 175 20 74 11 169 23 210 27 l75 8 3 66 c3 59 1 66 -20 76
-55 27 -138 38 -293 37 -500 -3 -920 -145 -1305 -442 -154 -119 -380 -364
-380 -412 0 -22 -47 -110 -70 -130 -16 -14 -78 -161 -124 -295 -19 -56 -20
-88 -24 -460 -4 -401 9 -730 29 -783 6 -15 11 -63 11 -107 0 -92 4 -115 22
-115 10 0 14 -50 20 -207 3 -115 8 -219 11 -233 4 -24 18 -363 30 -705 7 -196
-9 -636 -30 -840 -67 -640 -242 -1164 -543 -1630 -35 -55 -79 -116 -96 -136
-32 -36 -68 -86 -144 -199 -25 -36 -72 -94 -106 -130 -34 -36 -72 -82 -85
-102 -12 -21 -29 -38 -36 -38 -19 0 -138 -105 -147 -130 -4 -11 -16 -20 -26
-20 -19 0 -83 -44 -136 -93 -73 -67 -177 -120 -191 -98 -14 23 90 246 134 285
27 24 71 100 71 121 0 21 45 100 82 143 34 40 79 128 103 202 20 62 49 122 76
160 25 35 157 373 212 545 20 60 42 169 52 246 5 43 11 58 24 62 15 3 23 28
40 118 31 167 59 365 71 519 6 74 15 164 20 200 13 86 12 580 0 855 -6 121
-19 328 -30 460 -64 770 -80 1022 -80 1295 0 151 5 326 11 389 11 121 50 316
70 354 7 12 13 54 13 92 1 54 6 77 22 100 11 17 31 57 44 90 63 160 257 497
295 511 7 3 51 42 97 88 46 45 119 109 163 143 122 93 215 205 215 260 0 27
-5 34 -26 39 -53 13 -112 -3 -215 -60 -477 -262 -904 -367 -1272 -311 -145 22
-262 60 -672 220 -93 37 -222 82 -285 101 -63 19 -135 42 -160 51 -25 8 -90
19 -145 23 -103 8 -367 10 -420 3z"/>
</g>
</svg>
