<?xml version="1.0" encoding="UTF-8"?>
<svg version="1.1" xmlns="http://www.w3.org/2000/svg" width="614" height="614">
<path d="M0 0 C202.62 0 405.24 0 614 0 C614 202.62 614 405.24 614 614 C411.38 614 208.76 614 0 614 C0 411.38 0 208.76 0 0 Z " fill="#FEFEFE" transform="translate(0,0)"/>
<path d="M0 0 C8.0213566 3.25379208 16.0431914 6.36318776 24.25 9.125 C25.31605469 9.51816406 26.38210937 9.91132812 27.48046875 10.31640625 C50.35480046 18.01269371 73.377554 11.40074802 94.25 1.125 C95.56174285 0.46066572 96.87164904 -0.20730761 98.1796875 -0.87890625 C98.81221436 -1.20262207 99.44474121 -1.52633789 100.09643555 -1.85986328 C101.82605342 -2.7548333 103.54433388 -3.671618 105.26171875 -4.58984375 C108.23298586 -5.86768281 110.06413565 -6.16462403 113.25 -5.875 C114.1875 -3.8125 114.1875 -3.8125 114.25 -0.875 C111.21301229 3.37274694 106.85807166 6.47689011 102.75 9.625 C88.04940511 20.89876703 74.85567558 39.49794079 72.25 58.125 C71.60747635 60.1328864 70.94258229 62.13382592 70.25 64.125 C68.36314006 70.54896589 67.83865819 76.57318145 67.625 83.25 C67.56699219 84.66539062 67.56699219 84.66539062 67.5078125 86.109375 C67.01499404 99.16906418 67.31751514 112.02676279 68.36117554 125.04324341 C68.56897617 127.643539 68.76834583 130.24437843 68.96606445 132.84545898 C69.57227415 140.77049267 70.20412221 148.69244915 70.9030304 156.60987854 C72.4665124 174.3444544 73.5276975 191.93842184 73.5 209.75 C73.49883682 211.018936 73.49883682 211.018936 73.49765015 212.31350708 C73.49123965 214.70134375 73.47511215 217.08882242 73.453125 219.4765625 C73.44873917 220.17991226 73.44435333 220.88326202 73.43983459 221.60792542 C73.3874353 225.23779528 73.05436259 228.58793276 72.25 232.125 C72.12427141 234.06122036 72.02283927 235.99907947 71.9375 237.9375 C71.24198481 248.77594509 69.14431171 259.44366211 67.25 270.125 C66.59 270.125 65.93 270.125 65.25 270.125 C65.21479248 270.73448486 65.17958496 271.34396973 65.14331055 271.97192383 C64.65726621 278.35163785 63.28948952 283.83351082 61.0625 289.8125 C60.74788818 290.6797168 60.43327637 291.54693359 60.10913086 292.44042969 C59.17066967 295.00765451 58.21361438 297.56712553 57.25 300.125 C56.99025391 300.82383301 56.73050781 301.52266602 56.46289062 302.24267578 C51.27922059 316.10864569 44.56496168 329.07046538 37.14453125 341.84765625 C34.05233765 347.1968324 31.01384175 352.5973165 28.25 358.125 C36.58198417 353.94316764 44.42553098 349.18841678 50.90625 342.38671875 C52.25 341.125 52.25 341.125 54.25 341.125 C54.51039063 340.53460938 54.77078125 339.94421875 55.0390625 339.3359375 C56.6782855 336.34303357 58.91864301 334.40656971 61.3984375 332.1015625 C63.70443938 329.63988117 65.40161167 326.94586129 67.25 324.125 C68.05578579 323.03989283 68.87129051 321.96194945 69.6953125 320.890625 C108.25152189 270.54176671 107.56963357 211.69021838 103.82246399 151.21446228 C103.75565681 150.1357058 103.75565681 150.1357058 103.6875 149.03515625 C103.62292854 147.99646141 103.62292854 147.99646141 103.55705261 146.93678284 C103.2248019 141.32761909 103.1406839 135.74187369 103.25 130.125 C102.59 130.125 101.93 130.125 101.25 130.125 C101.26740234 129.20267578 101.26740234 129.20267578 101.28515625 128.26171875 C101.29417969 127.45347656 101.30320312 126.64523438 101.3125 125.8125 C101.32990234 124.61173828 101.32990234 124.61173828 101.34765625 123.38671875 C101.34657855 120.95638666 101.34657855 120.95638666 100.25 118.125 C99.05074057 106.48774182 99.14448493 94.74862877 99.125 83.0625 C99.1224118 82.34326355 99.11982361 81.6240271 99.11715698 80.88299561 C99.05818009 60.0691924 99.05818009 60.0691924 103 50.125 C103.27021973 49.43003418 103.54043945 48.73506836 103.81884766 48.01904297 C109.50320124 33.70276929 117.92745654 23.39723735 130.25 14.125 C131.05308594 13.50753906 131.85617187 12.89007813 132.68359375 12.25390625 C151.00469332 -1.25376815 172.64608209 -7.22674494 195.25 -7.25 C196.47638184 -7.25229614 196.47638184 -7.25229614 197.72753906 -7.25463867 C202.2657362 -7.16970169 205.98155479 -6.58511427 210.25 -4.875 C210.25 -2.565 210.25 -0.255 210.25 2.125 C209.3070105 2.22204224 209.3070105 2.22204224 208.3449707 2.32104492 C182.66969082 4.90333787 182.66969082 4.90333787 162.21875 19.59765625 C153.35149783 32.65430934 152.05331009 46.10465339 152.0625 61.4375 C152.06258057 62.69755859 152.06266113 63.95761719 152.06274414 65.25585938 C152.14871304 79.78550861 152.37508469 94.8406611 155.25 109.125 C155.44076012 110.77212751 155.60664619 112.42229013 155.75 114.07421875 C155.8325 115.00556641 155.915 115.93691406 156 116.89648438 C156.0825 117.85876953 156.165 118.82105469 156.25 119.8125 C156.41621445 121.7122792 156.58287866 123.61201911 156.75 125.51171875 C156.8221875 126.34920654 156.894375 127.18669434 156.96875 128.04956055 C157.12616848 129.77091521 157.2934351 131.49168441 157.49676514 133.20822144 C158.32980354 140.5326176 158.42829041 147.80518185 158.453125 155.171875 C158.45595238 155.82924904 158.45877975 156.48662308 158.46169281 157.16391754 C158.47657582 160.64248539 158.48587407 164.12101292 158.49023438 167.59960938 C158.49570625 171.14720642 158.51973849 174.69441729 158.54820633 178.24189377 C158.56704135 181.01154588 158.57204921 183.78110871 158.57357025 186.5508194 C158.57797563 188.48141468 158.59650984 190.41196174 158.61553955 192.34246826 C158.59415991 200.94784706 157.33681918 208.78786875 155.25 217.125 C154.85802822 218.77863524 154.46609059 220.43227858 154.07421875 222.0859375 C148.02518739 246.0047056 137.87985487 266.42189286 123.42626953 286.45214844 C122.24843139 288.12723083 121.15397534 289.84054978 120.05859375 291.5703125 C119.46175781 292.41335938 118.86492187 293.25640625 118.25 294.125 C117.59 294.125 116.93 294.125 116.25 294.125 C116.03730469 294.81078125 115.82460938 295.4965625 115.60546875 296.203125 C113.83454948 300.02055328 111.35092547 302.75677447 108.5625 305.875 C107.46196654 307.13013105 106.36299931 308.38663719 105.265625 309.64453125 C104.73904297 310.2473291 104.21246094 310.85012695 103.66992188 311.47119141 C101.97382022 313.44667156 100.38025959 315.48403085 98.8125 317.5625 C94.97833801 322.62359383 90.74342557 327.34088079 86.51586914 332.07397461 C85.96535889 332.69796143 85.41484863 333.32194824 84.84765625 333.96484375 C84.34758057 334.52550537 83.84750488 335.08616699 83.33227539 335.66381836 C82.05160045 337.08980234 82.05160045 337.08980234 82.25 339.125 C83.57 339.125 84.89 339.125 86.25 339.125 C86.25 338.465 86.25 337.805 86.25 337.125 C90.78449929 336.23203296 95.3247901 335.38154847 99.87304688 334.56152344 C101.40229371 334.28067983 102.92985587 333.99041383 104.45507812 333.68847656 C125.38599234 329.56402028 149.28262487 328.99571082 170.25 333.125 C171.07048828 333.28629395 171.89097656 333.44758789 172.73632812 333.61376953 C189.51147827 336.98749222 205.87476011 341.50144355 221.25 349.125 C222.45808344 349.70494792 223.66643654 350.28433431 224.875 350.86328125 C235.95853105 356.23274613 246.66462065 362.27672257 257.04296875 368.91015625 C259.58443153 370.30908532 261.31514855 370.44438324 264.1640625 369.921875 C266.99154822 368.84171191 269.25581245 367.20834763 271.75 365.5 C277.54001168 361.5787645 277.54001168 361.5787645 281.4375 362.1875 C282.365625 362.496875 283.29375 362.80625 284.25 363.125 C284.63046247 366.90205497 284.59601017 368.62955987 282.38671875 371.79296875 C281.57847656 372.62441406 280.77023437 373.45585937 279.9375 374.3125 C279.13699219 375.15167969 278.33648437 375.99085938 277.51171875 376.85546875 C276.76535156 377.60441406 276.01898438 378.35335938 275.25 379.125 C274.69957031 379.71925781 274.14914062 380.31351562 273.58203125 380.92578125 C272.25 382.125 272.25 382.125 270.25 382.125 C270.01748535 382.68276123 269.7849707 383.24052246 269.54541016 383.81518555 C267.91376361 386.72453496 265.88827874 388.72848491 263.5234375 391.08203125 C263.0569278 391.54808273 262.59041809 392.01413422 262.10977173 392.49430847 C261.1219326 393.47913345 260.13167105 394.46153381 259.13916016 395.44165039 C257.64566953 396.91708043 256.1601425 398.4001574 254.67578125 399.88476562 C249.95948512 404.58273175 245.1682904 409.12958874 240.10888672 413.46020508 C238.1053039 415.25458796 236.25219462 417.1414017 234.3984375 419.08984375 C233.77453125 419.74404297 233.150625 420.39824219 232.5078125 421.07226562 C231.23523166 422.41745222 229.97240795 423.7719264 228.71875 425.13476562 C224.13424033 429.89523676 224.13424033 429.89523676 220.2734375 430.8984375 C215.94165635 429.79030744 213.01554262 427.50676528 209.5 424.8125 C207.99023033 423.70389203 206.47709894 422.59985025 204.9609375 421.5 C204.18459961 420.93667969 203.40826172 420.37335938 202.60839844 419.79296875 C192.09906656 412.36028185 180.93909899 406.00776506 169.11425781 400.93554688 C167.23486031 400.11841753 165.38024014 399.25771224 163.5234375 398.390625 C154.58609281 394.33858075 145.4438284 391.65979157 135.9375 389.25 C134.76936768 388.95158203 133.60123535 388.65316406 132.39770508 388.34570312 C125.81241272 386.74565191 119.45648946 385.70716292 112.68676758 385.33154297 C110.25 385.125 110.25 385.125 107.25 384.125 C72.10424729 379.36382933 35.61000671 386.10740046 2.25 397.125 C1.09516113 397.50640137 1.09516113 397.50640137 -0.08300781 397.89550781 C-7.96773738 400.53044716 -15.66178431 403.36148867 -23.1796875 406.9296875 C-25.81693035 408.15612566 -28.48574916 409.23631513 -31.1875 410.3125 C-36.95771059 412.69337533 -42.53879988 415.40882215 -48.125 418.1875 C-49.4097522 418.8230481 -49.4097522 418.8230481 -50.72045898 419.47143555 C-54.33408343 421.28692671 -57.82712178 423.09592264 -61.1484375 425.41015625 C-64.28505981 427.47768957 -66.06216201 427.627887 -69.75 427.125 C-71.75 425.125 -71.75 425.125 -72.375 422.4375 C-71.39077727 417.22111954 -67.81297329 415.2701136 -63.75 412.125 C-61.95622016 410.64839668 -60.16464491 409.16911215 -58.375 407.6875 C-53.9664564 404.09331237 -49.5183732 400.5524225 -45.0390625 397.046875 C-42.44784364 394.87131241 -40.1227328 392.53846641 -37.75 390.125 C-36.44298634 388.83823682 -35.13423586 387.55323658 -33.82421875 386.26953125 C-22.63049988 375.28088614 -22.63049988 375.28088614 -12.75 363.125 C-12.17507812 362.35542969 -11.60015625 361.58585937 -11.0078125 360.79296875 C1.73197615 343.26868169 11.86922674 324.32113487 9.25 302.125 C7.42932607 295.86549292 4.62486941 291.8575482 -0.75 288.125 C-1.245 286.64 -1.245 286.64 -1.75 285.125 C-12.23438001 276.82404622 -24.52287704 272.8954783 -37.33984375 269.91162109 C-38.12617188 269.72164551 -38.9125 269.53166992 -39.72265625 269.3359375 C-40.77851929 269.09302979 -40.77851929 269.09302979 -41.85571289 268.84521484 C-44.16450432 267.96740395 -45.31942215 267.14495118 -46.75 265.125 C-46.62792969 263.09863281 -46.62792969 263.09863281 -45.75 261.125 C-40.9728802 257.08282171 -36.50575703 254.96848662 -30.5 253.375 C-29.73075195 253.16383545 -28.96150391 252.9526709 -28.16894531 252.73510742 C-21.51332825 251.04567697 -14.9723878 250.50540248 -8.12011719 250.40136719 C-3.65239397 250.32610101 0.11374961 250.04540197 4.25 248.125 C6.60943267 241.04670199 5.56387336 234.25714815 2.59765625 227.52734375 C0.14078054 223.14769575 -3.17168044 218.41415978 -7.75 216.125 C-7.75 215.465 -7.75 214.805 -7.75 214.125 C-10.06 213.795 -12.37 213.465 -14.75 213.125 C-14.75 212.135 -14.75 211.145 -14.75 210.125 C-27.142635 205.71406212 -38.77266245 203.68778169 -51.9375 203.5 C-54.51440246 203.44919857 -57.09123582 203.39471212 -59.66796875 203.3359375 C-60.78969482 203.31837402 -61.9114209 203.30081055 -63.06713867 203.28271484 C-65.75 203.125 -65.75 203.125 -67.75 202.125 C-68.32624169 198.91451061 -68.14524707 196.79220606 -66.47265625 193.96875 C-59.34284169 184.5270001 -51.52475192 178.92533775 -40.75 174.125 C-39.99340088 173.77606689 -39.23680176 173.42713379 -38.45727539 173.06762695 C-35.37411009 171.99412157 -32.86215229 171.83872279 -29.6015625 171.78125 C-28.43109375 171.75160156 -27.260625 171.72195312 -26.0546875 171.69140625 C-24.84039062 171.66949219 -23.62609375 171.64757812 -22.375 171.625 C-10.91040042 172.22953027 -10.91040042 172.22953027 -0.75 168.125 C-0.71063045 165.78568045 -0.732646 163.47411484 -0.79296875 161.13671875 C-0.81898201 159.64358036 -0.84340878 158.15041369 -0.86645508 156.65722656 C-0.87899323 155.86707153 -0.89153137 155.0769165 -0.90444946 154.26281738 C-1.20723905 131.81445031 -0.0119843 109.26460228 8.25 88.125 C8.49588867 87.48240234 8.74177734 86.83980469 8.99511719 86.17773438 C14.02000749 73.22776615 20.82962843 60.43348741 30.25 50.125 C30.91 50.125 31.57 50.125 32.25 50.125 C32.91 48.475 33.57 46.825 34.25 45.125 C33.71375 45.29515625 33.1775 45.4653125 32.625 45.640625 C27.08035963 47.35508617 21.49819289 48.88109525 15.875 50.3125 C15.18535156 50.49135742 14.49570313 50.67021484 13.78515625 50.85449219 C10.46098668 51.68878719 7.70575044 52.125 4.25 52.125 C4.25 52.785 4.25 53.445 4.25 54.125 C-6.64 54.125 -17.53 54.125 -28.75 54.125 C-28.75 53.465 -28.75 52.805 -28.75 52.125 C-29.46285156 52.06441406 -30.17570312 52.00382812 -30.91015625 51.94140625 C-33.85823672 51.68349881 -36.80396388 51.40519365 -39.75 51.125 C-40.925625 51.021875 -42.10125 50.91875 -43.3125 50.8125 C-46.29324386 50.21635123 -48.49046778 49.44171917 -51.25 48.25 C-62.94692699 43.40867372 -78.86605039 40.1504633 -91.25 44.296875 C-96.5491557 46.81657158 -100.98056568 49.5559887 -104.75 54.125 C-105.18828125 54.63289063 -105.6265625 55.14078125 -106.078125 55.6640625 C-108.13732388 58.0664612 -109.99371824 60.49057736 -111.75 63.125 C-114.875 63.3125 -114.875 63.3125 -117.75 63.125 C-119.88766355 52.67567571 -114.85381849 43.04217942 -109.26953125 34.34765625 C-108.76808594 33.61417969 -108.26664063 32.88070312 -107.75 32.125 C-107.30011719 31.46371094 -106.85023437 30.80242187 -106.38671875 30.12109375 C-104.90771535 28.0588214 -103.35692833 26.08942475 -101.75 24.125 C-101.04230469 23.25875 -100.33460937 22.3925 -99.60546875 21.5 C-73.88020782 -8.42275908 -35.3474724 -14.59715814 0 0 Z " fill="#271347" transform="translate(225.75,79.875)"/>
<path d="M0 0 C0.9375 2.0625 0.9375 2.0625 1 5 C-1.97236256 9.00323975 -5.45643549 11.95489225 -10 14 C-10.37125 13.38125 -10.7425 12.7625 -11.125 12.125 C-13.48622906 9.4489404 -15.60131652 8.9063156 -19 8 C-16.15378158 5.75852083 -13.28521656 3.96606643 -10.0625 2.3125 C-9.22847656 1.87550781 -8.39445312 1.43851562 -7.53515625 0.98828125 C-4.82851229 -0.06685114 -2.87731627 -0.19044848 0 0 Z " fill="#332451" transform="translate(339,74)"/>
<path d="M0 0 C0.33 0.66 0.66 1.32 1 2 C4.64653273 3.11421833 7.33291043 2.94296589 11 2 C11 2.99 11 3.98 11 5 C9.6706543 6.25854492 9.6706543 6.25854492 7.82421875 7.48046875 C7.16099609 7.92197266 6.49777344 8.36347656 5.81445312 8.81835938 C5.11255859 9.27017578 4.41066406 9.72199219 3.6875 10.1875 C2.99720703 10.65091797 2.30691406 11.11433594 1.59570312 11.59179688 C-3.5994224 15 -3.5994224 15 -7 15 C-5.45454854 9.52067211 -2.84456788 4.88570819 0 0 Z " fill="#F4EEF5" transform="translate(261,423)"/>
<path d="M0 0 C-0.99 0.33 -1.98 0.66 -3 1 C-3.33 1.66 -3.66 2.32 -4 3 C-3.34 3.33 -2.68 3.66 -2 4 C-4.5654594 6.5654594 -6.47686668 6.54046087 -10 7 C-10 7.99 -10 8.98 -10 10 C-8.02 10.66 -6.04 11.32 -4 12 C-6.67286779 12.98995103 -7.85219333 13.04574968 -10.625 12.1875 C-13 11 -13 11 -15 9 C-14.78640564 6.45212437 -14.33807792 5.32160746 -12.4765625 3.55078125 C-11.86554688 3.14214844 -11.25453125 2.73351562 -10.625 2.3125 C-10.01914063 1.89613281 -9.41328125 1.47976563 -8.7890625 1.05078125 C-5.4841733 -0.89029996 -3.57467493 -1.10938188 0 0 Z M-6 9 C-5.01 9.495 -5.01 9.495 -4 10 C-4.99 10.495 -4.99 10.495 -6 11 C-6 10.34 -6 9.68 -6 9 Z " fill="#2C1F4C" transform="translate(194,336)"/>
<path d="M0 0 C0.66 0 1.32 0 2 0 C2 0.99 2 1.98 2 3 C1.01 3 0.02 3 -1 3 C-1.02126953 4.03060547 -1.02126953 4.03060547 -1.04296875 5.08203125 C-1.18690453 7.80125039 -1.4043812 10.34129581 -2 13 C-4.3125 14.8125 -4.3125 14.8125 -7 16 C-9.27537692 18.57183314 -9.27537692 18.57183314 -11 21 C-11.73046875 19.37109375 -11.73046875 19.37109375 -12 17 C-10.48828125 14.16015625 -10.48828125 14.16015625 -8.3125 11.0625 C-7.60738281 10.04285156 -6.90226563 9.02320313 -6.17578125 7.97265625 C-2.08432163 2.38270873 -2.08432163 2.38270873 0 0 Z " fill="#2F1F49" transform="translate(256,130)"/>
<path d="M0 0 C0.78375 0.185625 1.5675 0.37125 2.375 0.5625 C4.97089775 1.25962266 4.97089775 1.25962266 7 0 C9.3329866 -0.04022391 11.66706666 -0.04320247 14 0 C13.67 1.32 13.34 2.64 13 4 C13.99 4.66 14.98 5.32 16 6 C15.67 6.66 15.34 7.32 15 8 C13.41532272 7.71572583 11.8322943 7.42225182 10.25 7.125 C9.36828125 6.96257812 8.4865625 6.80015625 7.578125 6.6328125 C5.10085083 6.02475429 3.16649702 5.33928907 1 4 C0.25 1.875 0.25 1.875 0 0 Z " fill="#2B184B" transform="translate(360,464)"/>
<path d="M0 0 C0.33 0 0.66 0 1 0 C1.0505963 6.37203593 1.08568957 12.7440203 1.10986328 19.11621094 C1.11993789 21.28517594 1.13359798 23.45412731 1.15087891 25.62304688 C1.17506323 28.73571126 1.18646832 31.84819651 1.1953125 34.9609375 C1.20563507 35.934935 1.21595764 36.9089325 1.22659302 37.91244507 C1.22674408 38.81322784 1.22689514 39.71401062 1.22705078 40.64208984 C1.231492 41.43706879 1.23593323 42.23204773 1.24050903 43.05111694 C1 45 1 45 -1 47 C-2.70746836 31.26360237 -1.26179016 15.71446124 0 0 Z " fill="#4E4264" transform="translate(292,157)"/>
<path d="M0 0 C0.33 0 0.66 0 1 0 C1.34751969 2.91916538 1.53280018 5.13195476 -0.04296875 7.69921875 C-1.84637235 9.88339965 -3.44412384 11.72206192 -6 13 C-6.72693904 14.97888961 -7.39816251 16.97954558 -8 19 C-10.31 19.33 -12.62 19.66 -15 20 C-14.13375 19.01 -13.2675 18.02 -12.375 17 C-7.76521948 11.61647381 -3.61963485 6.09622712 0 0 Z " fill="#312249" transform="translate(297,398)"/>
<path d="M0 0 C1.32 0.66 2.64 1.32 4 2 C3.21625 2.226875 2.4325 2.45375 1.625 2.6875 C-1.2197245 3.74653828 -1.2197245 3.74653828 -2 6.5 C-3 9 -3 9 -5.375 10.375 C-8.08323761 11.01981848 -9.42385222 10.95412881 -12 10 C-12 9.34 -12 8.68 -12 8 C-10.23596271 6.74163402 -8.41220501 5.5661735 -6.5625 4.4375 C-3.09563564 2.46466077 -3.09563564 2.46466077 0 0 Z " fill="#342551" transform="translate(270,428)"/>
<path d="M0 0 C0.33 0 0.66 0 1 0 C1 4.95 1 9.9 1 15 C0.01 15.495 0.01 15.495 -1 16 C-0.67 10.72 -0.34 5.44 0 0 Z M-4 9 C-1.97649676 12.03525486 -1.67875982 13.19426202 -1.375 16.6875 C-1.30023438 17.49574219 -1.22546875 18.30398437 -1.1484375 19.13671875 C-1.09945313 19.75160156 -1.05046875 20.36648437 -1 21 C-1.99 21.495 -1.99 21.495 -3 22 C-3 21.34 -3 20.68 -3 20 C-3.66 20 -4.32 20 -5 20 C-5.14285714 12.57142857 -5.14285714 12.57142857 -4 9 Z " fill="#2E1A4C" transform="translate(293,204)"/>
<path d="M0 0 C0.33 1.32 0.66 2.64 1 4 C1.66 4 2.32 4 3 4 C3.33 3.34 3.66 2.68 4 2 C3.625 4.9375 3.625 4.9375 3 8 C2.01 8.495 2.01 8.495 1 9 C1 8.01 1 7.02 1 6 C0.01 6.495 0.01 6.495 -1 7 C-1.33 7.99 -1.66 8.98 -2 10 C-3.98 10 -5.96 10 -8 10 C-7.04367001 8.70684939 -6.08486149 7.41553147 -5.125 6.125 C-4.59132812 5.40570313 -4.05765625 4.68640625 -3.5078125 3.9453125 C-2 2 -2 2 0 0 Z " fill="#2F1E4C" transform="translate(211,446)"/>
<path d="M0 0 C0.99 0.33 1.98 0.66 3 1 C0.89851796 4.98175544 -1.36905358 7.35039045 -5 10 C-5.4125 9.38125 -5.825 8.7625 -6.25 8.125 C-8.07610938 5.90758146 -9.43617863 5.17596765 -12 4 C-11.30132812 3.79503906 -10.60265625 3.59007813 -9.8828125 3.37890625 C-8.97273437 3.10949219 -8.06265625 2.84007813 -7.125 2.5625 C-6.22007812 2.29566406 -5.31515625 2.02882813 -4.3828125 1.75390625 C-2.01724619 1.07386174 -2.01724619 1.07386174 0 0 Z " fill="#E2DBEA" transform="translate(258,124)"/>
<path d="M0 0 C2.97 0 5.94 0 9 0 C7.38262276 3.23475448 6.52370777 4.70572021 4 7 C1.08482708 5.92598892 -0.77810176 5.22189824 -3 3 C-2.01 2.67 -1.02 2.34 0 2 C0 1.34 0 0.68 0 0 Z " fill="#261748" transform="translate(331,77)"/>
<path d="M0 0 C2 2 2 2 2 4 C0.35 4 -1.3 4 -3 4 C-3.061875 4.61875 -3.12375 5.2375 -3.1875 5.875 C-3.455625 6.57625 -3.72375 7.2775 -4 8 C-5.66072849 8.68132451 -7.327767 9.34742127 -9 10 C-10.34410262 12.01735205 -10.34410262 12.01735205 -11 14 C-11.66 13.67 -12.32 13.34 -13 13 C-11.50536684 9.3852622 -9.4391696 7.35564512 -6.5 4.8125 C-5.7059375 4.11769531 -4.911875 3.42289062 -4.09375 2.70703125 C-2 1 -2 1 0 0 Z " fill="#34264E" transform="translate(175,259)"/>
<path d="M0 0 C0.99 0 1.98 0 3 0 C3 1.98 3 3.96 3 6 C-0.3 6 -3.6 6 -7 6 C-6.67 4.35 -6.34 2.7 -6 1 C-4.02 1 -2.04 1 0 1 C0 0.67 0 0.34 0 0 Z " fill="#231546" transform="translate(433,75)"/>
<path d="M0 0 C0.66 0.33 1.32 0.66 2 1 C2 1.33 2 1.66 2 2 C2.66 2 3.32 2 4 2 C4 1.67 4 1.34 4 1 C9.75 0.875 9.75 0.875 12 2 C11 5 11 5 8.9375 6.4375 C4.52883762 7.28171194 1.72966197 5.23964813 -2 3 C-2 2.34 -2 1.68 -2 1 C-1.34 0.67 -0.68 0.34 0 0 Z " fill="#2E194C" transform="translate(404,481)"/>
<path d="M0 0 C3.465 1.485 3.465 1.485 7 3 C-0.4 9 -0.4 9 -4 9 C-2.94124926 5.59687262 -1.99097846 2.98646769 0 0 Z " fill="#ECE3F3" transform="translate(258,429)"/>
<path d="M0 0 C2.66666667 1.33333333 5.33333333 2.66666667 8 4 C7.67 4.66 7.34 5.32 7 6 C10.63 6 14.26 6 18 6 C18 6.33 18 6.66 18 7 C15.37493198 7.02690844 12.75013827 7.04679404 10.125 7.0625 C9.37863281 7.07087891 8.63226563 7.07925781 7.86328125 7.08789062 C2.2265625 7.11328125 2.2265625 7.11328125 0 6 C0 4.02 0 2.04 0 0 Z " fill="#46385C" transform="translate(158,276)"/>
<path d="M0 0 C1.17755859 -0.00773437 1.17755859 -0.00773437 2.37890625 -0.015625 C4.4375 0.25 4.4375 0.25 6.4375 2.25 C5.65375 2.518125 4.87 2.78625 4.0625 3.0625 C1.15635077 4.09814432 1.15635077 4.09814432 -0.5625 7.25 C-0.5625 6.59 -0.5625 5.93 -0.5625 5.25 C-1.5525 4.92 -2.5425 4.59 -3.5625 4.25 C-4.90340759 3.59870203 -6.23842331 2.93486725 -7.5625 2.25 C-4.42838698 0.16059132 -3.58799528 -0.02364412 0 0 Z " fill="#301E4E" transform="translate(201.5625,72.75)"/>
<path d="M0 0 C0.33 0.66 0.66 1.32 1 2 C0.67 2.66 0.34 3.32 0 4 C0.66 4.33 1.32 4.66 2 5 C1.071875 5.12375 1.071875 5.12375 0.125 5.25 C-0.57625 5.4975 -1.2775 5.745 -2 6 C-2.28875 6.66 -2.5775 7.32 -2.875 8 C-3.24625 8.66 -3.6175 9.32 -4 10 C-7.125 10.75 -7.125 10.75 -10 11 C-6.79239749 7.19364503 -3.59253891 3.45436433 0 0 Z " fill="#473762" transform="translate(202,456)"/>
<path d="M0 0 C2.32873375 0.68255989 4.66182791 1.35050775 7 2 C7 2.33 7 2.66 7 3 C5.58461283 3.33872513 4.16762037 3.67074624 2.75 4 C1.96109375 4.185625 1.1721875 4.37125 0.359375 4.5625 C-2 5 -2 5 -6 5 C-6 4.34 -6 3.68 -6 3 C-6.99 2.34 -7.98 1.68 -9 1 C-2.25 -1.125 -2.25 -1.125 0 0 Z " fill="#362451" transform="translate(255,465)"/>
<path d="M0 0 C1.32 0.66 2.64 1.32 4 2 C3.01 2.33 2.02 2.66 1 3 C2.32 3.99 3.64 4.98 5 6 C4.67 6.99 4.34 7.98 4 9 C4.66 9 5.32 9 6 9 C5.67 9.66 5.34 10.32 5 11 C2.36 9.02 -0.28 7.04 -3 5 C-2.01 3.35 -1.02 1.7 0 0 Z " fill="#342552" transform="translate(435,497)"/>
<path d="M0 0 C1.093125 0.0825 2.18625 0.165 3.3125 0.25 C3.6425 1.24 3.9725 2.23 4.3125 3.25 C2.9925 3.58 1.6725 3.91 0.3125 4.25 C0.3125 5.24 0.3125 6.23 0.3125 7.25 C-1.9975 6.26 -4.3075 5.27 -6.6875 4.25 C-4.79150483 0.68106792 -4.16790733 0.28256999 0 0 Z " fill="#382554" transform="translate(395.6875,473.75)"/>
<path d="M0 0 C1 2 1 2 0.3125 4.5 C-1.22183827 7.42254909 -2.13241603 7.60965626 -5 9 C-5.474375 9.845625 -5.94875 10.69125 -6.4375 11.5625 C-8 14 -8 14 -10.6875 14.8125 C-11.450625 14.874375 -12.21375 14.93625 -13 15 C-13 14.34 -13 13.68 -13 13 C-11.42578125 11.484375 -11.42578125 11.484375 -9.3125 9.75 C-5.76035397 6.74045531 -2.86029631 3.66475465 0 0 Z " fill="#E3DBEA" transform="translate(509,449)"/>
<path d="M0 0 C2.97 0.495 2.97 0.495 6 1 C5.01 1.495 5.01 1.495 4 2 C4 2.99 4 3.98 4 5 C5.98 5.66 7.96 6.32 10 7 C7.32713221 7.98995103 6.14780667 8.04574968 3.375 7.1875 C1 6 1 6 -1 4 C-0.625 1.875 -0.625 1.875 0 0 Z M8 4 C8.99 4.495 8.99 4.495 10 5 C9.01 5.495 9.01 5.495 8 6 C8 5.34 8 4.68 8 4 Z " fill="#3D2E58" transform="translate(180,341)"/>
<path d="M0 0 C1.4783226 2.95664519 1.06032783 5.74229737 1 9 C0.01 9 -0.98 9 -2 9 C-3.02019573 9.9793879 -4.02149805 10.97895449 -5 12 C-5.66 12 -6.32 12 -7 12 C-5.63855967 6.80177328 -3.53269829 3.90456127 0 0 Z " fill="#3D2D58" transform="translate(341,108)"/>
<path d="M0 0 C3 3.75 3 3.75 3 6 C5.97 6.495 5.97 6.495 9 7 C7 9 7 9 4 9.25 C1 9 1 9 -1 7 C-1.1875 3.9375 -1.1875 3.9375 -1 1 C-0.67 0.67 -0.34 0.34 0 0 Z " fill="#35294C" transform="translate(155,498)"/>
<path d="M0 0 C0.66 0 1.32 0 2 0 C2 0.66 2 1.32 2 2 C2.66 2.33 3.32 2.66 4 3 C1.69 5.31 -0.62 7.62 -3 10 C-3.99 9.67 -4.98 9.34 -6 9 C-5.34 7.68 -4.68 6.36 -4 5 C-3.01 5 -2.02 5 -1 5 C-0.67 3.35 -0.34 1.7 0 0 Z " fill="#392A4F" transform="translate(452,500)"/>
<path d="M0 0 C0.33 0 0.66 0 1 0 C1 3 1 6 1 9 C1.66 9 2.32 9 3 9 C3.33 10.32 3.66 11.64 4 13 C0.75791433 12.64950425 -0.61527704 12.43778819 -2.8125 9.9375 C-3.204375 9.298125 -3.59625 8.65875 -4 8 C-2.68 5.36 -1.36 2.72 0 0 Z " fill="#3C2956" transform="translate(228,419)"/>
<path d="M0 0 C0.66 0 1.32 0 2 0 C2.33663062 3.70293685 2.47736015 5.39534381 0.125 8.375 C-2 10 -2 10 -4 10 C-4.33 10.66 -4.66 11.32 -5 12 C-5.33 11.34 -5.66 10.68 -6 10 C-4.85546875 7.6171875 -4.85546875 7.6171875 -3.1875 4.875 C-2.64480469 3.96492188 -2.10210937 3.05484375 -1.54296875 2.1171875 C-1.03378906 1.41851562 -0.52460938 0.71984375 0 0 Z " fill="#E7E0EC" transform="translate(362,345)"/>
<path d="M0 0 C6.93 0.495 6.93 0.495 14 1 C8.66666667 5 8.66666667 5 5 5 C2.1875 2.5625 2.1875 2.5625 0 0 Z " fill="#2E2050" transform="translate(200,480)"/>
<path d="M0 0 C1.74627478 2.61941217 2.38722388 4.03824877 3 7 C2.360625 7.268125 1.72125 7.53625 1.0625 7.8125 C-1.33131686 8.88667752 -1.33131686 8.88667752 -2 12 C-2.66 12 -3.32 12 -4 12 C-3.45660208 7.43545749 -2.20536179 4.0271824 0 0 Z " fill="#372450" transform="translate(333,120)"/>
<path d="M0 0 C0 3 0 3 -1.5 4.9375 C-3.39211447 7.11411144 -3.39211447 7.11411144 -3 11 C-3.99 11.33 -4.98 11.66 -6 12 C-6.99 11.01 -7.98 10.02 -9 9 C-6.03 6.03 -3.06 3.06 0 0 Z " fill="#F4EEF8" transform="translate(458,500)"/>
<path d="M0 0 C0 3 0 3 -2.5625 6 C-3.366875 6.99 -4.17125 7.98 -5 9 C-4.67 9.99 -4.34 10.98 -4 12 C-5.98 12.33 -7.96 12.66 -10 13 C-7.37288552 8.05484333 -3.73354706 4.12224511 0 0 Z " fill="#E1D7EA" transform="translate(316,407)"/>
<path d="M0 0 C1.32 0.33 2.64 0.66 4 1 C3.6875 3.375 3.6875 3.375 3 6 C2.01 6.66 1.02 7.32 0 8 C0.66 6.35 1.32 4.7 2 3 C1.34 3 0.68 3 0 3 C-0.66 4.65 -1.32 6.3 -2 8 C-2.66 8 -3.32 8 -4 8 C-2.87548273 5.0280615 -1.77706209 2.66559313 0 0 Z " fill="#33224C" transform="translate(307,384)"/>
<path d="M0 0 C0.86625 0.556875 0.86625 0.556875 1.75 1.125 C1.75 2.775 1.75 4.425 1.75 6.125 C-1.49208567 5.77450425 -2.86527704 5.56278819 -5.0625 3.0625 C-5.6503125 2.1034375 -5.6503125 2.1034375 -6.25 1.125 C-2.80384615 -1.09038462 -2.80384615 -1.09038462 0 0 Z " fill="#311E4B" transform="translate(182.25,256.875)"/>
<path d="M0 0 C-3.03247047 1.71980386 -5.53697144 2.36548058 -9 2.6875 C-9.845625 2.77386719 -10.69125 2.86023438 -11.5625 2.94921875 C-13.92908198 2.99852254 -15.74899875 2.69301659 -18 2 C-11.53261488 -0.99415978 -6.99272215 -1.18933594 0 0 Z " fill="#3B3056" transform="translate(200,253)"/>
<path d="M0 0 C-1.68673918 4.49797113 -3.81673892 8.72886302 -6 13 C-6.33 13 -6.66 13 -7 13 C-7.2975048 5.26487524 -7.2975048 5.26487524 -5 2 C-2 0 -2 0 0 0 Z " fill="#382A4E" transform="translate(307,113)"/>
<path d="M0 0 C0.33 0.99 0.66 1.98 1 3 C-1.97 3 -4.94 3 -8 3 C-8 3.66 -8 4.32 -8 5 C-8.99 5.33 -9.98 5.66 -11 6 C-11.66 5.34 -12.32 4.68 -13 4 C-4.738041 -0.59225513 -4.738041 -0.59225513 0 0 Z " fill="#3E3154" transform="translate(339,74)"/>
<path d="M0 0 C0.66 0.33 1.32 0.66 2 1 C1.525625 1.598125 1.05125 2.19625 0.5625 2.8125 C-1.16465744 5.00382924 -1.16465744 5.00382924 -2 8 C-4.5625 9.1875 -4.5625 9.1875 -7 10 C-7.66 9.34 -8.32 8.68 -9 8 C-6.03 5.36 -3.06 2.72 0 0 Z " fill="#413158" transform="translate(181,476)"/>
<path d="M0 0 C1.72863281 0.29197266 1.72863281 0.29197266 3.4921875 0.58984375 C4.79542969 0.82380859 4.79542969 0.82380859 6.125 1.0625 C6.125 1.3925 6.125 1.7225 6.125 2.0625 C-0.145 2.0625 -6.415 2.0625 -12.875 2.0625 C-12.875 1.4025 -12.875 0.7425 -12.875 0.0625 C-8.27112021 -0.93803923 -4.63049487 -0.80324911 0 0 Z " fill="#433559" transform="translate(209.875,131.9375)"/>
<path d="M0 0 C5.4611399 0.96891192 5.4611399 0.96891192 8 2 C9.5 4.625 9.5 4.625 10 7 C5.545 6.01 5.545 6.01 1 5 C0.67 3.35 0.34 1.7 0 0 Z " fill="#332650" transform="translate(360,464)"/>
<path d="M0 0 C0.33 0 0.66 0 1 0 C1.35338623 2.96844435 1.5417682 5.15598218 -0.11328125 7.734375 C-1.35503168 9.20348819 -2.67337918 10.60704814 -4 12 C-4.66 10.68 -5.32 9.36 -6 8 C-4.73046875 6.50260417 -3.4609375 5.00520833 -2.19140625 3.5078125 C-0.9121848 1.99405921 -0.9121848 1.99405921 0 0 Z " fill="#3E3053" transform="translate(297,398)"/>
<path d="M0 0 C2.35953094 2.35953094 2.49141413 3.77895617 3 7 C0.03 9.475 0.03 9.475 -3 12 C-2.40075776 7.80530429 -1.42500059 3.99000166 0 0 Z " fill="#3B2F54" transform="translate(234,168)"/>
<path d="M0 0 C3.3 0.33 6.6 0.66 10 1 C9.34 2.98 8.68 4.96 8 7 C6.66382648 6.02471263 5.3311249 5.04466681 4 4.0625 C3.2575 3.51722656 2.515 2.97195313 1.75 2.41015625 C1.1725 1.94480469 0.595 1.47945313 0 1 C0 0.67 0 0.34 0 0 Z " fill="#36264C" transform="translate(218,295)"/>
<path d="M0 0 C0.33 0 0.66 0 1 0 C0.67 7.26 0.34 14.52 0 22 C-0.33 22 -0.66 22 -1 22 C-2.51708428 7.40318907 -2.51708428 7.40318907 0 0 Z " fill="#392953" transform="translate(380,189)"/>
<path d="M0 0 C0.66 0.33 1.32 0.66 2 1 C1.67 1.598125 1.34 2.19625 1 2.8125 C-0.20787988 5.05386471 -0.20787988 5.05386471 0 8 C-2.53184488 10.35723489 -3.47190093 11 -7 11 C-5.54682061 7.6092481 -3.58699688 5.58699688 -1 3 C-0.67 2.01 -0.34 1.02 0 0 Z " fill="#E5E2EB" transform="translate(340,76)"/>
<path d="M0 0 C0.99 0.33 1.98 0.66 3 1 C4.1875 3.5625 4.1875 3.5625 5 6 C5.66 4.68 6.32 3.36 7 2 C7.66 2 8.32 2 9 2 C9 2.66 9 3.32 9 4 C8.34 4 7.68 4 7 4 C7.33 4.99 7.66 5.98 8 7 C6.02 7 4.04 7 2 7 C1.34 4.69 0.68 2.38 0 0 Z " fill="#200F43" transform="translate(156,498)"/>
<path d="M0 0 C0.66 0.99 1.32 1.98 2 3 C1.125 6.6875 1.125 6.6875 0 10 C-1.65 9.67 -3.3 9.34 -5 9 C-4.67 8.34 -4.34 7.68 -4 7 C-3.01 7 -2.02 7 -1 7 C-0.67 5.68 -0.34 4.36 0 3 C-1.32 3.33 -2.64 3.66 -4 4 C-2.68 2.68 -1.36 1.36 0 0 Z " fill="#39275A" transform="translate(188,470)"/>
<path d="M0 0 C0.33 0.66 0.66 1.32 1 2 C2.65 2 4.3 2 6 2 C6 2.66 6 3.32 6 4 C6.99 4.33 7.98 4.66 9 5 C8.67 5.99 8.34 6.98 8 8 C4.7 6.02 1.4 4.04 -2 2 C-1.34 1.34 -0.68 0.68 0 0 Z " fill="#392A55" transform="translate(215,356)"/>
<path d="M0 0 C1.46972992 2.93945984 1 5.74955436 1 9 C1.33 9.66 1.66 10.32 2 11 C1.39421747 13.01927511 0.73080266 15.02253397 0 17 C-2.14336161 13.5233662 -2.21277626 10.78770805 -2.125 6.75 C-2.10695312 5.67234375 -2.08890625 4.5946875 -2.0703125 3.484375 C-2.04710937 2.66453125 -2.02390625 1.8446875 -2 1 C-1.34 0.67 -0.68 0.34 0 0 Z " fill="#4E4062" transform="translate(233,312)"/>
<path d="M0 0 C0.66 0.99 1.32 1.98 2 3 C1.01 4.98 0.02 6.96 -1 9 C-3.475 8.01 -3.475 8.01 -6 7 C-5 4 -5 4 -3 2.9375 C-2.34 2.628125 -1.68 2.31875 -1 2 C-0.67 1.34 -0.34 0.68 0 0 Z " fill="#F1EEF6" transform="translate(334,113)"/>
<path d="M0 0 C0.66 0 1.32 0 2 0 C0.7874262 3.72433382 -0.50859979 7.37802806 -2 11 C-2.33 10.01 -2.66 9.02 -3 8 C-3.66 8 -4.32 8 -5 8 C-4 6 -3 4 -2 2 C-1.34 2 -0.68 2 0 2 C0 1.34 0 0.68 0 0 Z " fill="#3A284F" transform="translate(277,389)"/>
<path d="M0 0 C3.0916909 2.52956528 3.90931332 5.22454612 5 9 C3.68 9.33 2.36 9.66 1 10 C1 6 1 6 2 4 C1.34 4 0.68 4 0 4 C0 2.68 0 1.36 0 0 Z " fill="#E6E1EE" transform="translate(225,302)"/>
<path d="M0 0 C0.33 0.99 0.66 1.98 1 3 C-0.29486821 4.69672386 -1.63360658 6.3603279 -3 8 C-3.33 8.886875 -3.66 9.77375 -4 10.6875 C-5 13 -5 13 -7.125 14.3125 C-8.053125 14.6528125 -8.053125 14.6528125 -9 15 C-7.61219205 11.10993227 -5.7847773 8.03441292 -3.375 4.6875 C-2.74335938 3.80449219 -2.11171875 2.92148438 -1.4609375 2.01171875 C-0.97882813 1.34785156 -0.49671875 0.68398437 0 0 Z " fill="#E5DDEC" transform="translate(316,100)"/>
<path d="M0 0 C0.99 0 1.98 0 3 0 C1.90931332 3.77545388 1.0916909 6.47043472 -2 9 C-2.33 6.69 -2.66 4.38 -3 2 C-2.01 2 -1.02 2 0 2 C0 1.34 0 0.68 0 0 Z " fill="#2C1A4C" transform="translate(331,130)"/>
<path d="M0 0 C0.99 0 1.98 0 3 0 C1.50902342 3.7952131 -0.75700849 5.61042731 -4 8 C-4.33 6.68 -4.66 5.36 -5 4 C-4.01 4.33 -3.02 4.66 -2 5 C-1.7834375 4.0409375 -1.7834375 4.0409375 -1.5625 3.0625 C-1 1 -1 1 0 0 Z " fill="#35274E" transform="translate(505,450)"/>
<path d="M0 0 C0.66 0 1.32 0 2 0 C2.33 1.32 2.66 2.64 3 4 C2.01 4.495 2.01 4.495 1 5 C0.67 5.99 0.34 6.98 0 8 C-2.0625 9.1875 -2.0625 9.1875 -4 10 C-2.8905928 6.51329166 -1.73662334 3.22515763 0 0 Z " fill="#EDE4F2" transform="translate(277,393)"/>
<path d="M0 0 C0.33 0.99 0.66 1.98 1 3 C-1.64 5.97 -4.28 8.94 -7 12 C-7.66 11.67 -8.32 11.34 -9 11 C-6.03 7.37 -3.06 3.74 0 0 Z " fill="#D9D2E3" transform="translate(333,386)"/>
<path d="M0 0 C0.66 0 1.32 0 2 0 C1.71640113 1.4391134 1.42278601 2.87625518 1.125 4.3125 C0.88136719 5.51326172 0.88136719 5.51326172 0.6328125 6.73828125 C0 9 0 9 -2 12 C-2.84454356 8.62182575 -3.10844919 6.32534757 -2 3 C-1.34 3 -0.68 3 0 3 C0 2.01 0 1.02 0 0 Z " fill="#30224D" transform="translate(288,357)"/>
<path d="M0 0 C1.32 0.33 2.64 0.66 4 1 C4 1.99 4 2.98 4 4 C-1.75 7 -1.75 7 -4 7 C-4 6.34 -4 5.68 -4 5 C-2.68 4.67 -1.36 4.34 0 4 C0 2.68 0 1.36 0 0 Z " fill="#33274E" transform="translate(180,491)"/>
<path d="M0 0 C0.66 0.66 1.32 1.32 2 2 C0.68 3.32 -0.64 4.64 -2 6 C-2.99 5.34 -3.98 4.68 -5 4 C-3.35 2.68 -1.7 1.36 0 0 Z M-4 7 C-3.67 7.99 -3.34 8.98 -3 10 C-3.66 9.67 -4.32 9.34 -5 9 C-4.67 8.34 -4.34 7.68 -4 7 Z " fill="#332450" transform="translate(171,485)"/>
<path d="M0 0 C0.33 0 0.66 0 1 0 C1.33 1.65 1.66 3.3 2 5 C2.66 3.35 3.32 1.7 4 0 C5.39195915 4.17587745 3.82323219 6.13474776 2 10 C1.34 9.67 0.68 9.34 0 9 C0 6.03 0 3.06 0 0 Z " fill="#46345D" transform="translate(226,238)"/>
<path d="M0 0 C0.66 0.66 1.32 1.32 2 2 C1.01 3.485 1.01 3.485 0 5 C-3.125 5.1875 -3.125 5.1875 -6 5 C-6.33 4.01 -6.66 3.02 -7 2 C-6.030625 1.855625 -5.06125 1.71125 -4.0625 1.5625 C-1.13513227 1.32437659 -1.13513227 1.32437659 0 0 Z " fill="#342748" transform="translate(114,138)"/>
<path d="M0 0 C0.33 0 0.66 0 1 0 C1.24264119 4.1249003 0.34555804 7.12162682 -1 11 C-1.36920191 12.99369031 -1.71325582 14.99279077 -2 17 C-2.33 17 -2.66 17 -3 17 C-3.08333357 12.1666528 -2.95261487 7.76307437 -2 3 C-1.34 3 -0.68 3 0 3 C0 2.01 0 1.02 0 0 Z " fill="#635773" transform="translate(297,133)"/>
<path d="M0 0 C0.66 0.66 1.32 1.32 2 2 C2.66 1.67 3.32 1.34 4 1 C4 1.99 4 2.98 4 4 C2.02 4.99 0.04 5.98 -2 7 C-1.67 5.68 -1.34 4.36 -1 3 C-2.32 2.67 -3.64 2.34 -5 2 C-3.35 1.34 -1.7 0.68 0 0 Z " fill="#321F53" transform="translate(347,105)"/>
<path d="M0 0 C0.66 0.33 1.32 0.66 2 1 C5.37822416 1.14375422 7.77390955 1.07536348 11 0 C10.67 0.99 10.34 1.98 10 3 C8.68 3 7.36 3 6 3 C5.67 3.66 5.34 4.32 5 5 C5 4.34 5 3.68 5 3 C3.02 3.33 1.04 3.66 -1 4 C-0.67 2.68 -0.34 1.36 0 0 Z " fill="#F0E9F6" transform="translate(154,505)"/>
<path d="M0 0 C1.32 0 2.64 0 4 0 C3.67 1.32 3.34 2.64 3 4 C3.66 4.33 4.32 4.66 5 5 C3.35 5.33 1.7 5.66 0 6 C-1.125 2.25 -1.125 2.25 0 0 Z " fill="#3C2858" transform="translate(251,434)"/>
<path d="M0 0 C0.66 0 1.32 0 2 0 C2 0.99 2 1.98 2 3 C1.01 3 0.02 3 -1 3 C-1 4.65 -1 6.3 -1 8 C-1.99 8 -2.98 8 -4 8 C-4 4.06830895 -2.60580385 2.83572772 0 0 Z " fill="#3B2E54" transform="translate(256,130)"/>
<path d="M0 0 C0.66 0.99 1.32 1.98 2 3 C0.71034824 4.37562854 -0.62689293 5.70766393 -2 7 C-2.66 7 -3.32 7 -4 7 C-3.67 5.02 -3.34 3.04 -3 1 C-2.01 0.67 -1.02 0.34 0 0 Z " fill="#382A52" transform="translate(474,481)"/>
<path d="M0 0 C2.97 0.495 2.97 0.495 6 1 C6.33 1.99 6.66 2.98 7 4 C5.02 4.33 3.04 4.66 1 5 C0.67 3.35 0.34 1.7 0 0 Z " fill="#2E1D46" transform="translate(218,474)"/>
<path d="M0 0 C2.125 0.9375 2.125 0.9375 4 2 C2.35 3.32 0.7 4.64 -1 6 C-1.66 5.34 -2.32 4.68 -3 4 C-2.67 3.01 -2.34 2.02 -2 1 C-1.34 0.67 -0.68 0.34 0 0 Z " fill="#32224E" transform="translate(485,469)"/>
<path d="M0 0 C0.99 0.33 1.98 0.66 3 1 C2.67 2.65 2.34 4.3 2 6 C1.34 6 0.68 6 0 6 C-0.33 6.66 -0.66 7.32 -1 8 C-1.66 8 -2.32 8 -3 8 C-1.125 2.25 -1.125 2.25 0 0 Z " fill="#403257" transform="translate(233,408)"/>
<path d="M0 0 C0.66 0 1.32 0 2 0 C1.49701212 4.40114397 -0.08772731 6.71195019 -3 10 C-3.33 8.68 -3.66 7.36 -4 6 C-2.68 5.34 -1.36 4.68 0 4 C0 2.68 0 1.36 0 0 Z " fill="#3B2D52" transform="translate(271,401)"/>
<path d="M0 0 C2.475 0.99 2.475 0.99 5 2 C4.67 2.99 4.34 3.98 4 5 C2.68 5 1.36 5 0 5 C0 4.34 0 3.68 0 3 C-0.66 2.67 -1.32 2.34 -2 2 C-1.34 1.34 -0.68 0.68 0 0 Z " fill="#322048" transform="translate(190,345)"/>
<path d="M0 0 C0.66 0 1.32 0 2 0 C1.40075776 4.19469571 0.42500059 8.00999834 -1 12 C-1.33 12 -1.66 12 -2 12 C-2.33 9.69 -2.66 7.38 -3 5 C-2.34 5 -1.68 5 -1 5 C-0.67 3.35 -0.34 1.7 0 0 Z " fill="#342651" transform="translate(375,310)"/>
<path d="M0 0 C1.60080151 4.00200378 0.29279692 7.04556236 -1 11 C-1.99 10.01 -2.98 9.02 -4 8 C-2.99983813 4.9995144 -1.6627026 2.67478244 0 0 Z " fill="#220E3F" transform="translate(230,242)"/>
<path d="M0 0 C-0.33 0.66 -0.66 1.32 -1 2 C-3.3260857 2.38063221 -5.66055264 2.71269945 -8 3 C-8.99 3.495 -8.99 3.495 -10 4 C-10.99 3.34 -11.98 2.68 -13 2 C-11.5882217 1.46605821 -10.17029756 0.94834896 -8.75 0.4375 C-7.96109375 0.14746094 -7.1721875 -0.14257812 -6.359375 -0.44140625 C-3.80896548 -1.04522837 -2.44677771 -0.8473932 0 0 Z " fill="#DCD1E4" transform="translate(417,85)"/>
<path d="M0 0 C3.63 0.33 7.26 0.66 11 1 C8.4345406 3.5654594 6.52313332 3.54046087 3 4 C2.01 2.68 1.02 1.36 0 0 Z " fill="#3A2D4F" transform="translate(223,473)"/>
<path d="M0 0 C1.32 0.33 2.64 0.66 4 1 C3.01 1.66 2.02 2.32 1 3 C0.27617533 5.05925139 0.27617533 5.05925139 0 7 C-1.65 7.33 -3.3 7.66 -5 8 C-3.35 5.36 -1.7 2.72 0 0 Z " fill="#E5DDE9" transform="translate(342,374)"/>
<path d="M0 0 C0.66 0.33 1.32 0.66 2 1 C-0.97 4.96 -0.97 4.96 -4 9 C-4.33 7.68 -4.66 6.36 -5 5 C-4.360625 4.731875 -3.72125 4.46375 -3.0625 4.1875 C-0.66868314 3.11332248 -0.66868314 3.11332248 0 0 Z " fill="#3C2D54" transform="translate(339,376)"/>
<path d="M0 0 C0.598125 0.20625 1.19625 0.4125 1.8125 0.625 C0.8225 0.955 -0.1675 1.285 -1.1875 1.625 C-1.5175 2.285 -1.8475 2.945 -2.1875 3.625 C-1.5275 3.955 -0.8675 4.285 -0.1875 4.625 C-0.8475 5.285 -1.5075 5.945 -2.1875 6.625 C-3.1775 6.295 -4.1675 5.965 -5.1875 5.625 C-5.1875 4.305 -5.1875 2.985 -5.1875 1.625 C-2.1875 -0.375 -2.1875 -0.375 0 0 Z " fill="#352655" transform="translate(192.1875,335.375)"/>
<path d="M0 0 C0.99 0 1.98 0 3 0 C3.33 1.65 3.66 3.3 4 5 C3.34 5 2.68 5 2 5 C2 5.66 2 6.32 2 7 C1.01 6.67 0.02 6.34 -1 6 C-0.67 4.02 -0.34 2.04 0 0 Z " fill="#2B1B4A" transform="translate(108,132)"/>
<path d="M0 0 C2.97 0.33 5.94 0.66 9 1 C8.67 1.99 8.34 2.98 8 4 C5.69 3.67 3.38 3.34 1 3 C0.67 2.01 0.34 1.02 0 0 Z " fill="#392B57" transform="translate(426,73)"/>
<path d="M0 0 C3.96 1.98 3.96 1.98 8 4 C6.02 4.99 6.02 4.99 4 6 C3.34 5.67 2.68 5.34 2 5 C2 4.34 2 3.68 2 3 C1.34 3 0.68 3 0 3 C0 2.01 0 1.02 0 0 Z " fill="#2D204A" transform="translate(467,440)"/>
<path d="M0 0 C0.33 0.99 0.66 1.98 1 3 C-5.625 3.25 -5.625 3.25 -9 1 C-5.8035914 -0.06546953 -3.34252724 -0.07427838 0 0 Z " fill="#1F0F37" transform="translate(419,419)"/>
<path d="M0 0 C0.2475 0.639375 0.495 1.27875 0.75 1.9375 C1.81562433 4.18741541 1.81562433 4.18741541 4.125 4.75 C4.74375 4.8325 5.3625 4.915 6 5 C5.01 6.32 4.02 7.64 3 9 C0 3.375 0 3.375 0 0 Z " fill="#2F1C4B" transform="translate(257,416)"/>
<path d="M0 0 C3.63 0.66 7.26 1.32 11 2 C11 2.33 11 2.66 11 3 C7.37 3.33 3.74 3.66 0 4 C0 2.68 0 1.36 0 0 Z " fill="#DCD7E8" transform="translate(331,410)"/>
<path d="M0 0 C0.66 0 1.32 0 2 0 C3.26264601 4.29299643 2.62950412 6.87831311 1 11 C0.34 10.34 -0.32 9.68 -1 9 C-0.9765625 6.8359375 -0.9765625 6.8359375 -0.625 4.375 C-0.51414062 3.55773437 -0.40328125 2.74046875 -0.2890625 1.8984375 C-0.19367188 1.27195312 -0.09828125 0.64546875 0 0 Z " fill="#200F3A" transform="translate(324,348)"/>
<path d="M0 0 C0 0.66 0 1.32 0 2 C-3.63 2 -7.26 2 -11 2 C-7.54930647 -0.30046235 -3.95022851 -1.97511426 0 0 Z " fill="#3A2951" transform="translate(296,92)"/>
<path d="M0 0 C1.32 0.33 2.64 0.66 4 1 C0.535 3.97 0.535 3.97 -3 7 C-3 6.01 -3 5.02 -3 4 C-2.34 4 -1.68 4 -1 4 C-0.67 2.68 -0.34 1.36 0 0 Z " fill="#382A4E" transform="translate(479,476)"/>
<path d="M0 0 C3.37462715 0.54723683 5.08235 1.0549 8 3 C8 3.66 8 4.32 8 5 C5.07120629 4.37240135 2.63904371 3.41377341 0 2 C0 1.34 0 0.68 0 0 Z " fill="#392E52" transform="translate(432,424)"/>
<path d="M0 0 C1.76462683 3.08809695 2 4.23312136 2 8 C0.68 7.34 -0.64 6.68 -2 6 C-1.34 4.02 -0.68 2.04 0 0 Z " fill="#3A2B55" transform="translate(316,366)"/>
<path d="M0 0 C1.32 0.33 2.64 0.66 4 1 C3.01 2.98 2.02 4.96 1 7 C0.01 5.68 -0.98 4.36 -2 3 C-1.34 2.01 -0.68 1.02 0 0 Z " fill="#F3EDF2" transform="translate(350,364)"/>
<path d="M0 0 C2.31 0.33 4.62 0.66 7 1 C7.33 1.99 7.66 2.98 8 4 C5.03 3.67 2.06 3.34 -1 3 C-0.67 2.01 -0.34 1.02 0 0 Z " fill="#2C1551" transform="translate(222,332)"/>
<path d="M0 0 C0.66 0 1.32 0 2 0 C3.2077558 3.62326739 2.54311128 4.64146369 1 8 C-1 6 -1 6 -1.1875 3.4375 C-1 1 -1 1 0 0 Z " fill="#2E1D45" transform="translate(380,105)"/>
<path d="M0 0 C1.65 0 3.3 0 5 0 C4.67 1.32 4.34 2.64 4 4 C4.66 4 5.32 4 6 4 C5.67 4.66 5.34 5.32 5 6 C3.2925002 4.71937515 1.62626404 3.38232443 0 2 C0 1.34 0 0.68 0 0 Z " fill="#403455" transform="translate(435,502)"/>
<path d="M0 0 C-2 3 -2 3 -5.125 3.6875 C-6.07375 3.790625 -7.0225 3.89375 -8 4 C-8 3.01 -8 2.02 -8 1 C-2.25 -1.125 -2.25 -1.125 0 0 Z " fill="#F0EBF6" transform="translate(236,475)"/>
<path d="M0 0 C2.31 0.66 4.62 1.32 7 2 C5.68 2.99 4.36 3.98 3 5 C2.34 4.67 1.68 4.34 1 4 C1 3.34 1 2.68 1 2 C0.34 1.67 -0.32 1.34 -1 1 C-0.67 0.67 -0.34 0.34 0 0 Z " fill="#2F2145" transform="translate(419,419)"/>
<path d="M0 0 C1.20628008 2.33214148 2.1654738 4.49642139 3 7 C2.01 7.495 2.01 7.495 1 8 C-0.5625 6.75 -0.5625 6.75 -2 5 C-1.74853421 2.86254078 -1.54074221 1.54074221 0 0 Z " fill="#2E1B49" transform="translate(307,408)"/>
<path d="M0 0 C2.64 0.33 5.28 0.66 8 1 C7.67 1.66 7.34 2.32 7 3 C4.69 3 2.38 3 0 3 C0 2.01 0 1.02 0 0 Z " fill="#2F224A" transform="translate(217,251)"/>
<path d="M0 0 C0.66 1.32 1.32 2.64 2 4 C0.75 6.75 0.75 6.75 -1 9 C-1.66 9 -2.32 9 -3 9 C-2.01 6.03 -1.02 3.06 0 0 Z " fill="#3A2F53" transform="translate(238,158)"/>
<path d="M0 0 C0.66 0.66 1.32 1.32 2 2 C1.2884375 2.61875 1.2884375 2.61875 0.5625 3.25 C-1.16266518 5.182185 -1.56584875 6.48192275 -2 9 C-2.33 9 -2.66 9 -3 9 C-3.36923077 3.46153846 -3.36923077 3.46153846 -1.5 1.125 C-1.005 0.75375 -0.51 0.3825 0 0 Z " fill="#F7F3FA" transform="translate(301,129)"/>
<path d="M0 0 C0.66 0.99 1.32 1.98 2 3 C0.68 4.32 -0.64 5.64 -2 7 C-2.33 5.68 -2.66 4.36 -3 3 C-2.34 3 -1.68 3 -1 3 C-0.67 2.01 -0.34 1.02 0 0 Z " fill="#321D4E" transform="translate(388,94)"/>
<path d="M0 0 C1.32 0 2.64 0 4 0 C6 2 6 2 6 5 C3.5625 4.1875 3.5625 4.1875 1 3 C0.67 2.01 0.34 1.02 0 0 Z " fill="#39284C" transform="translate(417,490)"/>
<path d="M0 0 C2.21736634 1.10868317 4.03617993 2.49440461 6 4 C3.39417629 4.93065133 2.35801776 5.14917407 -0.25 4.0625 C-0.8275 3.711875 -1.405 3.36125 -2 3 C-2 2.34 -2 1.68 -2 1 C-1.34 0.67 -0.68 0.34 0 0 Z " fill="#3A2A4F" transform="translate(404,481)"/>
<path d="M0 0 C0.33 0.66 0.66 1.32 1 2 C0.67 2.66 0.34 3.32 0 4 C0.66 4.33 1.32 4.66 2 5 C0.02 5 -1.96 5 -4 5 C-2.68 3.35 -1.36 1.7 0 0 Z " fill="#40305A" transform="translate(202,456)"/>
<path d="M0 0 C0 0.66 0 1.32 0 2 C0.66 2 1.32 2 2 2 C2 2.66 2 3.32 2 4 C0.68 4.33 -0.64 4.66 -2 5 C-2 4.34 -2 3.68 -2 3 C-2.66 3 -3.32 3 -4 3 C-4 2.34 -4 1.68 -4 1 C-2 0 -2 0 0 0 Z " fill="#2A1750" transform="translate(469,443)"/>
<path d="M0 0 C0.33 0.66 0.66 1.32 1 2 C1.66 2 2.32 2 3 2 C2.67 2.99 2.34 3.98 2 5 C-1.0625 6.1875 -1.0625 6.1875 -4 7 C-2.68 4.69 -1.36 2.38 0 0 Z " fill="#D6D0DF" transform="translate(268,411)"/>
<path d="M0 0 C0.66 0 1.32 0 2 0 C2 1.65 2 3.3 2 5 C0.02 5.99 0.02 5.99 -2 7 C-1.125 2.25 -1.125 2.25 0 0 Z " fill="#342448" transform="translate(323,350)"/>
<path d="M0 0 C0.33 0 0.66 0 1 0 C0.67 2.64 0.34 5.28 0 8 C-0.99 8 -1.98 8 -3 8 C-2.45276317 4.62537285 -1.9451 2.91765 0 0 Z " fill="#2D1B46" transform="translate(292,152)"/>
</svg>
